<?xml version="1.0" encoding="UTF-8" standalone="no"?>
<!-- Generator: Adobe Illustrator 18.0.0, SVG Export Plug-In . SVG Version: 6.00 Build 0)  -->

<svg
   xmlns:dc="http://purl.org/dc/elements/1.1/"
   xmlns:cc="http://creativecommons.org/ns#"
   xmlns:rdf="http://www.w3.org/1999/02/22-rdf-syntax-ns#"
   xmlns:svg="http://www.w3.org/2000/svg"
   xmlns="http://www.w3.org/2000/svg"
   xmlns:sodipodi="http://sodipodi.sourceforge.net/DTD/sodipodi-0.dtd"
   xmlns:inkscape="http://www.inkscape.org/namespaces/inkscape"
   version="1.1"
   id="Capa_1"
   x="0px"
   y="0px"
   viewBox="0 0 50 50"
   xml:space="preserve"
   sodipodi:docname="server.svg"
   width="50"
   height="50"
   inkscape:version="0.92.4 5da689c313, 2019-01-14"><metadata
   id="metadata121"><rdf:RDF><cc:Work
       rdf:about=""><dc:format>image/svg+xml</dc:format><dc:type
         rdf:resource="http://purl.org/dc/dcmitype/StillImage" /><dc:title></dc:title></cc:Work></rdf:RDF></metadata><defs
   id="defs119" /><sodipodi:namedview
   pagecolor="#ffffff"
   bordercolor="#666666"
   borderopacity="1"
   objecttolerance="10"
   gridtolerance="10"
   guidetolerance="10"
   inkscape:pageopacity="0"
   inkscape:pageshadow="2"
   inkscape:window-width="1366"
   inkscape:window-height="740"
   id="namedview117"
   showgrid="false"
   inkscape:zoom="4"
   inkscape:cx="29.5"
   inkscape:cy="29.5"
   inkscape:window-x="0"
   inkscape:window-y="0"
   inkscape:window-maximized="1"
   inkscape:current-layer="Capa_1" />
<g
   id="g84"
   transform="matrix(0.82758621,0,0,0.81355932,0.58620689,0.99999997)">
	<g
   id="g74">
		<path
   style="fill:#556080"
   d="M 54.892,19 H 4.108 C 2.116,19 0.5,17.384 0.5,15.392 V 3.608 C 0.5,1.616 2.116,0 4.108,0 H 54.891 C 56.884,0 58.5,1.616 58.5,3.608 V 15.391 C 58.5,17.384 56.884,19 54.892,19 Z"
   id="path2"
   inkscape:connector-curvature="0" />
		<path
   style="fill:#38454f"
   d="M 54.892,38 H 4.108 C 2.116,38 0.5,36.384 0.5,34.392 V 22.608 C 0.5,20.616 2.116,19 4.108,19 h 50.783 c 1.993,0 3.608,1.616 3.608,3.608 V 34.391 C 58.5,36.384 56.884,38 54.892,38 Z"
   id="path4"
   inkscape:connector-curvature="0" />
		<path
   style="fill:#556080"
   d="M 54.892,57 H 4.108 C 2.116,57 0.5,55.384 0.5,53.392 V 41.608 C 0.5,39.616 2.116,38 4.108,38 h 50.783 c 1.993,0 3.608,1.616 3.608,3.608 V 53.391 C 58.5,55.384 56.884,57 54.892,57 Z"
   id="path6"
   inkscape:connector-curvature="0" />
		<circle
   style="fill:#8697cb"
   cx="10"
   cy="9.5"
   r="3.5"
   id="circle8" />
		<circle
   style="fill:#8697cb"
   cx="49.5"
   cy="8"
   r="1"
   id="circle10" />
		<circle
   style="fill:#8697cb"
   cx="45.5"
   cy="8"
   r="1"
   id="circle12" />
		<circle
   style="fill:#8697cb"
   cx="51.5"
   cy="11"
   r="1"
   id="circle14" />
		<circle
   style="fill:#8697cb"
   cx="47.5"
   cy="11"
   r="1"
   id="circle16" />
		<circle
   style="fill:#8697cb"
   cx="41.5"
   cy="8"
   r="1"
   id="circle18" />
		<circle
   style="fill:#8697cb"
   cx="43.5"
   cy="11"
   r="1"
   id="circle20" />
		<circle
   style="fill:#8697cb"
   cx="37.5"
   cy="8"
   r="1"
   id="circle22" />
		<circle
   style="fill:#8697cb"
   cx="39.5"
   cy="11"
   r="1"
   id="circle24" />
		<circle
   style="fill:#8697cb"
   cx="33.5"
   cy="8"
   r="1"
   id="circle26" />
		<circle
   style="fill:#8697cb"
   cx="35.5"
   cy="11"
   r="1"
   id="circle28" />
		<circle
   style="fill:#8697cb"
   cx="10"
   cy="28.5"
   r="3.5"
   id="circle30" />
		<circle
   style="fill:#8697cb"
   cx="49.5"
   cy="27"
   r="1"
   id="circle32" />
		<circle
   style="fill:#8697cb"
   cx="45.5"
   cy="27"
   r="1"
   id="circle34" />
		<circle
   style="fill:#8697cb"
   cx="51.5"
   cy="30"
   r="1"
   id="circle36" />
		<circle
   style="fill:#8697cb"
   cx="47.5"
   cy="30"
   r="1"
   id="circle38" />
		<circle
   style="fill:#8697cb"
   cx="41.5"
   cy="27"
   r="1"
   id="circle40" />
		<circle
   style="fill:#8697cb"
   cx="43.5"
   cy="30"
   r="1"
   id="circle42" />
		<circle
   style="fill:#8697cb"
   cx="37.5"
   cy="27"
   r="1"
   id="circle44" />
		<circle
   style="fill:#8697cb"
   cx="39.5"
   cy="30"
   r="1"
   id="circle46" />
		<circle
   style="fill:#8697cb"
   cx="33.5"
   cy="27"
   r="1"
   id="circle48" />
		<circle
   style="fill:#8697cb"
   cx="35.5"
   cy="30"
   r="1"
   id="circle50" />
		<circle
   style="fill:#8697cb"
   cx="10"
   cy="47.5"
   r="3.5"
   id="circle52" />
		<circle
   style="fill:#8697cb"
   cx="49.5"
   cy="46"
   r="1"
   id="circle54" />
		<circle
   style="fill:#8697cb"
   cx="45.5"
   cy="46"
   r="1"
   id="circle56" />
		<circle
   style="fill:#8697cb"
   cx="51.5"
   cy="49"
   r="1"
   id="circle58" />
		<circle
   style="fill:#8697cb"
   cx="47.5"
   cy="49"
   r="1"
   id="circle60" />
		<circle
   style="fill:#8697cb"
   cx="41.5"
   cy="46"
   r="1"
   id="circle62" />
		<circle
   style="fill:#8697cb"
   cx="43.5"
   cy="49"
   r="1"
   id="circle64" />
		<circle
   style="fill:#8697cb"
   cx="37.5"
   cy="46"
   r="1"
   id="circle66" />
		<circle
   style="fill:#8697cb"
   cx="39.5"
   cy="49"
   r="1"
   id="circle68" />
		<circle
   style="fill:#8697cb"
   cx="33.5"
   cy="46"
   r="1"
   id="circle70" />
		<circle
   style="fill:#8697cb"
   cx="35.5"
   cy="49"
   r="1"
   id="circle72" />
	</g>
	<g
   id="g82">
		<g
   id="g80">
			<path
   style="fill:#48a0dc"
   d="M 53.545,48.111 C 53.494,44.175 50.382,41 46.546,41 c -2.568,0 -4.806,1.426 -6.025,3.546 -0.421,-0.141 -0.87,-0.22 -1.337,-0.22 -2.063,0 -3.785,1.492 -4.208,3.484 C 33.221,48.675 32,50.516 32,52.641 32,55.589 34.343,58 37.208,58 h 10.775 c 0.061,0 0.119,-0.007 0.18,-0.009 0.06,0.002 0.119,0.009 0.18,0.009 h 4.31 c 2.667,0 4.849,-2.245 4.849,-4.989 -0.002,-2.43 -1.714,-4.465 -3.957,-4.9 z"
   id="path76"
   inkscape:connector-curvature="0" />
			<path
   style="fill:#b1d3ef"
   d="m 52.651,59 h -4.31 C 48.278,59 48.215,58.996 48.153,58.992 48.106,58.996 48.045,59 47.982,59 H 37.208 C 33.785,59 31,56.147 31,52.642 c 0,-2.262 1.209,-4.372 3.116,-5.503 0.686,-2.235 2.746,-3.813 5.066,-3.813 0.296,0 0.592,0.025 0.884,0.076 C 41.562,41.286 43.98,40 46.546,40 c 4.102,0 7.524,3.225 7.954,7.332 2.358,0.806 4,3.079 4,5.679 C 58.5,56.313 55.876,59 52.651,59 Z M 48.114,56.991 48.3,56.997 52.651,57 c 2.122,0 3.849,-1.79 3.849,-3.989 0,-1.917 -1.323,-3.564 -3.146,-3.919 L 52.555,48.937 52.544,48.124 C 52.501,44.747 49.811,42 46.546,42 c -2.135,0 -4.063,1.139 -5.158,3.045 l -0.409,0.711 -0.777,-0.261 c -0.332,-0.112 -0.675,-0.169 -1.019,-0.169 -1.54,0 -2.898,1.133 -3.229,2.692 l -0.102,0.475 -0.435,0.214 C 33.948,49.432 33,50.976 33,52.642 33,55.045 34.888,57 37.208,57 Z"
   id="path78"
   inkscape:connector-curvature="0" />
		</g>
	</g>
</g>
<g
   id="g86"
   transform="translate(0,-9)">
</g>
<g
   id="g88"
   transform="translate(0,-9)">
</g>
<g
   id="g90"
   transform="translate(0,-9)">
</g>
<g
   id="g92"
   transform="translate(0,-9)">
</g>
<g
   id="g94"
   transform="translate(0,-9)">
</g>
<g
   id="g96"
   transform="translate(0,-9)">
</g>
<g
   id="g98"
   transform="translate(0,-9)">
</g>
<g
   id="g100"
   transform="translate(0,-9)">
</g>
<g
   id="g102"
   transform="translate(0,-9)">
</g>
<g
   id="g104"
   transform="translate(0,-9)">
</g>
<g
   id="g106"
   transform="translate(0,-9)">
</g>
<g
   id="g108"
   transform="translate(0,-9)">
</g>
<g
   id="g110"
   transform="translate(0,-9)">
</g>
<g
   id="g112"
   transform="translate(0,-9)">
</g>
<g
   id="g114"
   transform="translate(0,-9)">
</g>
</svg>