<?xml version="1.0" encoding="UTF-8" standalone="no"?>
<!-- Generator: Adobe Illustrator 18.0.0, SVG Export Plug-In . SVG Version: 6.00 Build 0)  -->

<svg
   xmlns:dc="http://purl.org/dc/elements/1.1/"
   xmlns:cc="http://creativecommons.org/ns#"
   xmlns:rdf="http://www.w3.org/1999/02/22-rdf-syntax-ns#"
   xmlns:svg="http://www.w3.org/2000/svg"
   xmlns="http://www.w3.org/2000/svg"
   xmlns:sodipodi="http://sodipodi.sourceforge.net/DTD/sodipodi-0.dtd"
   xmlns:inkscape="http://www.inkscape.org/namespaces/inkscape"
   version="1.1"
   id="Capa_1"
   x="0px"
   y="0px"
   viewBox="0 0 50 50"
   xml:space="preserve"
   sodipodi:docname="FogServer.svg"
   width="50"
   height="50"
   inkscape:version="0.92.4 5da689c313, 2019-01-14"><metadata
   id="metadata121"><rdf:RDF><cc:Work
       rdf:about=""><dc:format>image/svg+xml</dc:format><dc:type
         rdf:resource="http://purl.org/dc/dcmitype/StillImage" /><dc:title /></cc:Work></rdf:RDF></metadata><defs
   id="defs119">
	
	
</defs><sodipodi:namedview
   pagecolor="#ffffff"
   bordercolor="#666666"
   borderopacity="1"
   objecttolerance="10"
   gridtolerance="10"
   guidetolerance="10"
   inkscape:pageopacity="0"
   inkscape:pageshadow="2"
   inkscape:window-width="1366"
   inkscape:window-height="740"
   id="namedview117"
   showgrid="false"
   inkscape:zoom="4"
   inkscape:cx="-16"
   inkscape:cy="29.5"
   inkscape:window-x="0"
   inkscape:window-y="0"
   inkscape:window-maximized="1"
   inkscape:current-layer="Capa_1" />
<g
   id="g74"
   transform="matrix(0.82758621,0,0,0.81355932,0.58620689,0.99999997)">
		<path
   inkscape:connector-curvature="0"
   id="path2"
   d="M 54.892,19 H 4.108 C 2.116,19 0.5,17.384 0.5,15.392 V 3.608 C 0.5,1.616 2.116,0 4.108,0 H 54.891 C 56.884,0 58.5,1.616 58.5,3.608 V 15.391 C 58.5,17.384 56.884,19 54.892,19 Z"
   style="fill:#556080" />
		<path
   inkscape:connector-curvature="0"
   id="path4"
   d="M 54.892,38 H 4.108 C 2.116,38 0.5,36.384 0.5,34.392 V 22.608 C 0.5,20.616 2.116,19 4.108,19 h 50.783 c 1.993,0 3.608,1.616 3.608,3.608 V 34.391 C 58.5,36.384 56.884,38 54.892,38 Z"
   style="fill:#38454f" />
		<path
   inkscape:connector-curvature="0"
   id="path6"
   d="M 54.892,57 H 4.108 C 2.116,57 0.5,55.384 0.5,53.392 V 41.608 C 0.5,39.616 2.116,38 4.108,38 h 50.783 c 1.993,0 3.608,1.616 3.608,3.608 V 53.391 C 58.5,55.384 56.884,57 54.892,57 Z"
   style="fill:#556080" />
		<circle
   id="circle8"
   r="3.5"
   cy="9.5"
   cx="10"
   style="fill:#8697cb" />
		<circle
   id="circle10"
   r="1"
   cy="8"
   cx="49.5"
   style="fill:#8697cb" />
		<circle
   id="circle12"
   r="1"
   cy="8"
   cx="45.5"
   style="fill:#8697cb" />
		<circle
   id="circle14"
   r="1"
   cy="11"
   cx="51.5"
   style="fill:#8697cb" />
		<circle
   id="circle16"
   r="1"
   cy="11"
   cx="47.5"
   style="fill:#8697cb" />
		<circle
   id="circle18"
   r="1"
   cy="8"
   cx="41.5"
   style="fill:#8697cb" />
		<circle
   id="circle20"
   r="1"
   cy="11"
   cx="43.5"
   style="fill:#8697cb" />
		<circle
   id="circle22"
   r="1"
   cy="8"
   cx="37.5"
   style="fill:#8697cb" />
		<circle
   id="circle24"
   r="1"
   cy="11"
   cx="39.5"
   style="fill:#8697cb" />
		<circle
   id="circle26"
   r="1"
   cy="8"
   cx="33.5"
   style="fill:#8697cb" />
		<circle
   id="circle28"
   r="1"
   cy="11"
   cx="35.5"
   style="fill:#8697cb" />
		<circle
   id="circle30"
   r="3.5"
   cy="28.5"
   cx="10"
   style="fill:#8697cb" />
		<circle
   id="circle32"
   r="1"
   cy="27"
   cx="49.5"
   style="fill:#8697cb" />
		<circle
   id="circle34"
   r="1"
   cy="27"
   cx="45.5"
   style="fill:#8697cb" />
		<circle
   id="circle36"
   r="1"
   cy="30"
   cx="51.5"
   style="fill:#8697cb" />
		<circle
   id="circle38"
   r="1"
   cy="30"
   cx="47.5"
   style="fill:#8697cb" />
		<circle
   id="circle40"
   r="1"
   cy="27"
   cx="41.5"
   style="fill:#8697cb" />
		<circle
   id="circle42"
   r="1"
   cy="30"
   cx="43.5"
   style="fill:#8697cb" />
		<circle
   id="circle44"
   r="1"
   cy="27"
   cx="37.5"
   style="fill:#8697cb" />
		<circle
   id="circle46"
   r="1"
   cy="30"
   cx="39.5"
   style="fill:#8697cb" />
		<circle
   id="circle48"
   r="1"
   cy="27"
   cx="33.5"
   style="fill:#8697cb" />
		<circle
   id="circle50"
   r="1"
   cy="30"
   cx="35.5"
   style="fill:#8697cb" />
		<circle
   id="circle52"
   r="3.5"
   cy="47.5"
   cx="10"
   style="fill:#8697cb" />
		<circle
   id="circle54"
   r="1"
   cy="46"
   cx="49.5"
   style="fill:#8697cb" />
		<circle
   id="circle56"
   r="1"
   cy="46"
   cx="45.5"
   style="fill:#8697cb" />
		<circle
   id="circle58"
   r="1"
   cy="49"
   cx="51.5"
   style="fill:#8697cb" />
		<circle
   id="circle60"
   r="1"
   cy="49"
   cx="47.5"
   style="fill:#8697cb" />
		<circle
   id="circle62"
   r="1"
   cy="46"
   cx="41.5"
   style="fill:#8697cb" />
		<circle
   id="circle64"
   r="1"
   cy="49"
   cx="43.5"
   style="fill:#8697cb" />
		<circle
   id="circle66"
   r="1"
   cy="46"
   cx="37.5"
   style="fill:#8697cb" />
		<circle
   id="circle68"
   r="1"
   cy="49"
   cx="39.5"
   style="fill:#8697cb" />
		<circle
   id="circle70"
   r="1"
   cy="46"
   cx="33.5"
   style="fill:#8697cb" />
		<circle
   id="circle72"
   r="1"
   cy="49"
   cx="35.5"
   style="fill:#8697cb" />
	</g>
<g
   id="g86"
   transform="translate(0,-9)">
</g>
<g
   id="g88"
   transform="translate(0,-9)">
</g>
<g
   id="g90"
   transform="translate(0,-9)">
</g>
<g
   id="g92"
   transform="translate(0,-9)">
</g>
<g
   id="g94"
   transform="translate(0,-9)">
</g>
<g
   id="g96"
   transform="translate(0,-9)">
</g>
<g
   id="g98"
   transform="translate(0,-9)">
</g>
<g
   id="g100"
   transform="translate(0,-9)">
</g>
<g
   id="g102"
   transform="translate(0,-9)">
</g>
<g
   id="g104"
   transform="translate(0,-9)">
</g>
<g
   id="g106"
   transform="translate(0,-9)">
</g>
<g
   id="g108"
   transform="translate(0,-9)">
</g>
<g
   id="g110"
   transform="translate(0,-9)">
</g>
<g
   id="g112"
   transform="translate(0,-9)">
</g>
<g
   id="g114"
   transform="translate(0,-9)">
</g>
</svg>