<?xml version="1.0" encoding="UTF-8" standalone="no"?>
<!-- Generator: Adobe Illustrator 18.0.0, SVG Export Plug-In . SVG Version: 6.00 Build 0)  -->

<svg
   version="1.1"
   id="Capa_1"
   x="0px"
   y="0px"
   viewBox="0 0 50 50"
   xml:space="preserve"
   sodipodi:docname="TrafficShuffleLight.svg"
   width="50"
   height="50"
   inkscape:version="1.1.2 (0a00cf5339, 2022-02-04, custom)"
   inkscape:export-filename="/home/alexander/Projects/collab/neblina/src/main/resources/image/TrafficShuffleLight.png"
   inkscape:export-xdpi="96"
   inkscape:export-ydpi="96"
   xmlns:inkscape="http://www.inkscape.org/namespaces/inkscape"
   xmlns:sodipodi="http://sodipodi.sourceforge.net/DTD/sodipodi-0.dtd"
   xmlns="http://www.w3.org/2000/svg"
   xmlns:svg="http://www.w3.org/2000/svg"
   xmlns:rdf="http://www.w3.org/1999/02/22-rdf-syntax-ns#"
   xmlns:cc="http://creativecommons.org/ns#"
   xmlns:dc="http://purl.org/dc/elements/1.1/"><metadata
   id="metadata121"><rdf:RDF><cc:Work
       rdf:about=""><dc:format>image/svg+xml</dc:format><dc:type
         rdf:resource="http://purl.org/dc/dcmitype/StillImage" /></cc:Work></rdf:RDF></metadata><defs
   id="defs119" /><sodipodi:namedview
   pagecolor="#ffffff"
   bordercolor="#666666"
   borderopacity="1"
   objecttolerance="10"
   gridtolerance="10"
   guidetolerance="10"
   inkscape:pageopacity="0"
   inkscape:pageshadow="2"
   inkscape:window-width="1366"
   inkscape:window-height="711"
   id="namedview117"
   showgrid="false"
   inkscape:zoom="10.423674"
   inkscape:cx="25.087124"
   inkscape:cy="23.360285"
   inkscape:window-x="0"
   inkscape:window-y="0"
   inkscape:window-maximized="1"
   inkscape:current-layer="Capa_1"
   inkscape:pagecheckerboard="0" />
















<g
   id="g863"
   transform="matrix(0.83333323,0,0,0.8333233,4.1666668,4.1671574)"><g
     id="g86"
     transform="translate(0,-9)">
</g><g
     id="g88"
     transform="translate(0,-9)">
</g><g
     id="g90"
     transform="translate(0,-9)">
</g><g
     id="g92"
     transform="translate(0,-9)">
</g><g
     id="g94"
     transform="translate(0,-9)">
</g><g
     id="g96"
     transform="translate(0,-9)">
</g><g
     id="g98"
     transform="translate(0,-9)">
</g><g
     id="g100"
     transform="translate(0,-9)">
</g><g
     id="g102"
     transform="translate(0,-9)">
</g><g
     id="g104"
     transform="translate(0,-9)">
</g><g
     id="g106"
     transform="translate(0,-9)">
</g><g
     id="g108"
     transform="translate(0,-9)">
</g><g
     id="g110"
     transform="translate(0,-9)">
</g><g
     id="g112"
     transform="translate(0,-9)">
</g><g
     id="g114"
     transform="translate(0,-9)">
</g><path
     style="fill:#f2f2f2;fill-opacity:1;stroke:none;stroke-width:2.18223;stroke-miterlimit:4;stroke-dasharray:none;stroke-opacity:1"
     d="M 3.26804,48.877209 C 2.578498,48.690353 1.935335,48.246623 1.584609,47.715778 1.425415,47.474829 1.31461,47.261678 1.338376,47.24211 c 0.02377,-0.01957 4.556776,-3.589385 10.073358,-7.932926 5.516581,-4.343543 10.511244,-8.285962 11.09925,-8.760931 0.588006,-0.474969 1.274852,-0.957143 1.526327,-1.071498 0.62248,-0.283065 1.343222,-0.270443 1.937819,0.03394 0.265005,0.135658 5.475229,4.196067 11.578275,9.023131 l 11.096451,8.776479 -0.181288,0.286214 c -0.331027,0.52262 -0.624976,0.779406 -1.236636,1.08029 l -0.605655,0.29793 -21.423089,0.02062 C 8.16818,49.011749 3.675215,48.987559 3.26804,48.877214 Z"
     id="path13122" /><path
     style="fill:#f2f2f2;fill-opacity:1;stroke:none;stroke-width:2.18223;stroke-miterlimit:4;stroke-dasharray:none;stroke-opacity:1"
     d="m 1.000004,33.712687 c 0,-10.496351 0.01019,-11.08527 0.194781,-11.25259 0.107129,-0.09711 0.369419,-0.249648 0.582865,-0.338976 0.350584,-0.146721 0.421517,-0.144486 0.734092,0.02314 0.917442,0.491989 15.601339,9.147044 15.599262,9.194595 C 18.108304,31.401206 1.243091,44.696661 1.09612,44.752321 1.04104,44.773181 1,40.059828 1,33.712692 Z"
     id="path13296" /><path
     id="path13335"
     style="fill:#f2f2f2;fill-opacity:1;stroke:none;stroke-width:2.18223;stroke-miterlimit:4;stroke-dasharray:none;stroke-opacity:1"
     d="M 24.767578,1.0058594 C 9.6753981,1.0351224 9.66777,1.035801 9.171875,1.265625 8.471336,1.59029 7.9021595,2.1265965 7.5703125,2.7734375 l -0.2851563,0.5546875 -0.00781,9.595703 -0.00781,9.595703 6.2675778,3.689453 c 3.447864,2.028799 6.309532,3.693319 6.357422,3.699219 0.04789,0.0059 0.597214,-0.402101 1.220703,-0.908203 0.623489,-0.506101 1.343519,-1.04393 1.601563,-1.193359 1.093991,-0.633512 2.442027,-0.781173 3.587891,-0.394532 0.839204,0.283166 1.314519,0.58185 2.640624,1.66211 0.93789,0.763966 1.101093,0.859225 1.308594,0.759765 0.130356,-0.06248 2.959172,-1.712574 6.28711,-3.666015 l 6.050781,-3.552735 0.0918,-9.28125 c 0.06646,-6.7875225 0.05678,-9.4408706 -0.0332,-9.8749996 C 42.403398,2.2672914 41.515056,1.318847 40.431641,1.09375 40.041259,1.01267 35.211684,0.98560927 24.767578,1.0058594 Z m 6.339844,2.9492187 c 0.228913,0.00542 0.460748,0.090146 0.65039,0.2734375 l 3.171876,3.1035156 c 0.376479,0.3638676 0.376509,0.9521121 0,1.3164063 l -3.171876,3.1035155 c -0.570758,0.586532 -1.609374,0.171554 -1.609374,-0.658203 V 9.2304688 H 28.224609 L 26.503906,11.402344 24.935547,9.3339844 26.556641,7.2441406 c 0.241861,-0.3126623 0.621888,-0.4960937 1.02539,-0.4960937 h 2.53125 v -1.859375 c 0,-0.5704851 0.490533,-0.9455279 0.994141,-0.9335938 z M 16.03125,6.7480469 h 3.851562 c 0.405105,0 0.784733,0.1857592 1.025391,0.4960937 l 7.316406,9.4335934 h 1.925782 v -1.863281 c 0,-0.82999 1.000564,-1.244736 1.607421,-0.658203 l 3.207032,3.103516 c 0.376508,0.363868 0.376508,0.95422 0,1.318359 l -3.171875,3.101563 c -0.606857,0.586531 -1.644531,0.1696 -1.644531,-0.660157 v -1.859375 h -2.566407 c -0.405106,0 -0.784733,-0.18188 -1.02539,-0.496094 L 19.240234,9.2304688 H 16.03125 c -0.709537,0 -1.283203,-0.5555721 -1.283203,-1.2421876 0,-0.6866158 0.573666,-1.2402343 1.283203,-1.2402343 z m 4.892578,7.7578121 1.605469,2.06836 -1.621094,2.089843 c -0.24186,0.312663 -0.62189,0.496094 -1.025391,0.496094 H 16.03125 c -0.709537,0 -1.283203,-0.554006 -1.283203,-1.240234 0,-0.686228 0.573666,-1.242188 1.283203,-1.242188 h 3.208984 z" /><path
     style="fill:#f2f2f2;fill-opacity:1;stroke:none;stroke-width:2.18223;stroke-miterlimit:4;stroke-dasharray:none;stroke-opacity:1"
     d="m 40.393259,38.127941 c -6.387276,-5.047228 -8.490512,-6.765068 -8.394798,-6.856539 0.07024,-0.06713 3.390234,-2.028232 7.377763,-4.35801 3.987528,-2.329779 7.446294,-4.36887 7.686146,-4.531314 0.655312,-0.443821 0.854969,-0.475564 1.361903,-0.216526 0.246184,0.125798 0.470123,0.287928 0.497645,0.36029 0.02752,0.07236 0.0374,5.127697 0.02194,11.234078 l -0.0281,11.102511 z"
     id="path13374" /><path
     style="fill:#f2f2f2;fill-opacity:1;stroke:none;stroke-width:2.18223;stroke-miterlimit:4;stroke-dasharray:none;stroke-opacity:1"
     d="m 44.732014,18.262087 c 0.0075,-1.666673 0.04773,-2.820492 0.08939,-2.564043 0.04166,0.25645 0.121371,0.50765 0.177144,0.558222 0.140723,0.1276 1.528207,0.829925 2.098397,1.06218 0.895151,0.36462 1.675404,1.358366 1.830801,2.331744 l 0.07226,0.45264 -0.314677,-0.08617 c -0.927869,-0.254101 -1.772568,-0.01868 -3.203796,0.892921 -0.329796,0.210057 -0.636423,0.382126 -0.681396,0.382375 -0.04497,2.95e-4 -0.07563,-1.363191 -0.06812,-3.029864 z"
     id="path13413" /><path
     style="fill:#f2f2f2;fill-opacity:1;stroke:none;stroke-width:2.18223;stroke-miterlimit:4;stroke-dasharray:none;stroke-opacity:1"
     d="m 4.870333,21.139648 c -1.730995,-1.12172 -1.95483,-1.204381 -3.067576,-1.132854 -0.917216,0.05896 -0.925684,0.04787 -0.629185,-0.823716 0.218837,-0.643295 0.978562,-1.497946 1.591335,-1.790169 0.258542,-0.123295 0.899355,-0.426215 1.42403,-0.673156 L 5.142891,16.27077 v 2.510816 c 0,1.380949 -0.01226,2.508238 -0.02726,2.505088 -0.01499,-0.0031 -0.125377,-0.06931 -0.245303,-0.147026 z"
     id="path13452" /></g></svg>
