<?xml version="1.0" encoding="UTF-8" standalone="no"?>
<!-- Generator: Adobe Illustrator 18.0.0, SVG Export Plug-In . SVG Version: 6.00 Build 0)  -->

<svg
   version="1.1"
   id="Capa_1"
   x="0px"
   y="0px"
   viewBox="0 0 50 50"
   xml:space="preserve"
   sodipodi:docname="TrafficLight.svg"
   width="50"
   height="50"
   inkscape:version="1.1.2 (0a00cf5339, 2022-02-04, custom)"
   inkscape:export-filename="/home/alexander/Projects/collab/neblina/src/main/resources/image/TrafficLight.png"
   inkscape:export-xdpi="96"
   inkscape:export-ydpi="96"
   xmlns:inkscape="http://www.inkscape.org/namespaces/inkscape"
   xmlns:sodipodi="http://sodipodi.sourceforge.net/DTD/sodipodi-0.dtd"
   xmlns="http://www.w3.org/2000/svg"
   xmlns:svg="http://www.w3.org/2000/svg"
   xmlns:rdf="http://www.w3.org/1999/02/22-rdf-syntax-ns#"
   xmlns:cc="http://creativecommons.org/ns#"
   xmlns:dc="http://purl.org/dc/elements/1.1/"><metadata
   id="metadata121"><rdf:RDF><cc:Work
       rdf:about=""><dc:format>image/svg+xml</dc:format><dc:type
         rdf:resource="http://purl.org/dc/dcmitype/StillImage" /></cc:Work></rdf:RDF></metadata><defs
   id="defs119" /><sodipodi:namedview
   pagecolor="#ffffff"
   bordercolor="#666666"
   borderopacity="1"
   objecttolerance="10"
   gridtolerance="10"
   guidetolerance="10"
   inkscape:pageopacity="0"
   inkscape:pageshadow="2"
   inkscape:window-width="1366"
   inkscape:window-height="711"
   id="namedview117"
   showgrid="false"
   inkscape:zoom="4"
   inkscape:cx="29.625"
   inkscape:cy="29.375"
   inkscape:window-x="0"
   inkscape:window-y="0"
   inkscape:window-maximized="1"
   inkscape:current-layer="Capa_1"
   inkscape:pagecheckerboard="0" />

<g
   id="g86"
   transform="translate(0,-9)">
</g>
<g
   id="g88"
   transform="translate(0,-9)">
</g>
<g
   id="g90"
   transform="translate(0,-9)">
</g>
<g
   id="g92"
   transform="translate(0,-9)">
</g>
<g
   id="g94"
   transform="translate(0,-9)">
</g>
<g
   id="g96"
   transform="translate(0,-9)">
</g>
<g
   id="g98"
   transform="translate(0,-9)">
</g>
<g
   id="g100"
   transform="translate(0,-9)">
</g>
<g
   id="g102"
   transform="translate(0,-9)">
</g>
<g
   id="g104"
   transform="translate(0,-9)">
</g>
<g
   id="g106"
   transform="translate(0,-9)">
</g>
<g
   id="g108"
   transform="translate(0,-9)">
</g>
<g
   id="g110"
   transform="translate(0,-9)">
</g>
<g
   id="g112"
   transform="translate(0,-9)">
</g>
<g
   id="g114"
   transform="translate(0,-9)">
</g>
<g
   id="g848"
   transform="matrix(0.83333323,0,0,0.83333332,4.1666668,4.1666667)"><path
     style="fill:#f2f2f2;fill-opacity:1;stroke:none;stroke-width:2.18223;stroke-miterlimit:4;stroke-dasharray:none;stroke-opacity:1"
     d="M 3.26804,48.877209 C 2.578498,48.690353 1.935335,48.246623 1.584609,47.715778 1.425415,47.474829 1.31461,47.261678 1.338376,47.24211 c 0.02377,-0.01957 4.556776,-3.589385 10.073358,-7.932926 5.516581,-4.343543 10.511244,-8.285962 11.09925,-8.760931 0.588006,-0.474969 1.274852,-0.957143 1.526327,-1.071498 0.62248,-0.283065 1.343222,-0.270443 1.937819,0.03394 0.265005,0.135658 5.475229,4.196067 11.578275,9.023131 l 11.096451,8.776479 -0.181288,0.286214 c -0.331027,0.52262 -0.624976,0.779406 -1.236636,1.08029 l -0.605655,0.29793 -21.423089,0.02062 C 8.16818,49.011749 3.675215,48.987559 3.26804,48.877214 Z"
     id="path13122" /><path
     style="fill:#f2f2f2;fill-opacity:1;stroke:none;stroke-width:2.18223;stroke-miterlimit:4;stroke-dasharray:none;stroke-opacity:1"
     d="m 1.000004,33.712687 c 0,-10.496351 0.01019,-11.08527 0.194781,-11.25259 0.107129,-0.09711 0.369419,-0.249648 0.582865,-0.338976 0.350584,-0.146721 0.421517,-0.144486 0.734092,0.02314 0.917442,0.491989 15.601339,9.147044 15.599262,9.194595 C 18.108304,31.401206 1.243091,44.696661 1.09612,44.752321 1.04104,44.773181 1,40.059828 1,33.712692 Z"
     id="path13296" /><path
     style="fill:#f2f2f2;fill-opacity:1;stroke:none;stroke-width:2.18223;stroke-miterlimit:4;stroke-dasharray:none;stroke-opacity:1"
     d="m 13.537689,26.209163 -6.268842,-3.688727 0.0077,-9.59576 0.0077,-9.5957609 0.285157,-0.555833 c 0.331847,-0.646841 0.901364,-1.182774 1.601903,-1.507439 0.495895,-0.229824 0.503698,-0.229954 15.595878,-0.259217 10.444106,-0.0202501 15.273753,0.0069 15.664135,0.08798 1.083415,0.225097 1.972917,1.172353 2.21991,2.364046 0.08998,0.434129 0.09862,3.088141 0.03216,9.8756639 l -0.09089,9.281989 -6.050796,3.551711 c -3.327938,1.953441 -6.157452,3.602831 -6.287808,3.665312 -0.207501,0.09946 -0.37039,0.0049 -1.30828,-0.759066 -1.326106,-1.08026 -1.800883,-1.379212 -2.640088,-1.662378 -1.145864,-0.386641 -2.494365,-0.238014 -3.588356,0.395498 -0.258044,0.149429 -0.979297,0.685773 -1.602786,1.191874 -0.623489,0.506102 -1.172799,0.915379 -1.220691,0.909507 -0.04789,-0.0059 -2.908055,-1.670605 -6.355919,-3.699404 z"
     id="path13335" /><path
     style="fill:#f2f2f2;fill-opacity:1;stroke:none;stroke-width:2.18223;stroke-miterlimit:4;stroke-dasharray:none;stroke-opacity:1"
     d="m 40.393259,38.127941 c -6.387276,-5.047228 -8.490512,-6.765068 -8.394798,-6.856539 0.07024,-0.06713 3.390234,-2.028232 7.377763,-4.35801 3.987528,-2.329779 7.446294,-4.36887 7.686146,-4.531314 0.655312,-0.443821 0.854969,-0.475564 1.361903,-0.216526 0.246184,0.125798 0.470123,0.287928 0.497645,0.36029 0.02752,0.07236 0.0374,5.127697 0.02194,11.234078 l -0.0281,11.102511 z"
     id="path13374" /><path
     style="fill:#f2f2f2;fill-opacity:1;stroke:none;stroke-width:2.18223;stroke-miterlimit:4;stroke-dasharray:none;stroke-opacity:1"
     d="m 44.732014,18.262087 c 0.0075,-1.666673 0.04773,-2.820492 0.08939,-2.564043 0.04166,0.25645 0.121371,0.50765 0.177144,0.558222 0.140723,0.1276 1.528207,0.829925 2.098397,1.06218 0.895151,0.36462 1.675404,1.358366 1.830801,2.331744 l 0.07226,0.45264 -0.314677,-0.08617 c -0.927869,-0.254101 -1.772568,-0.01868 -3.203796,0.892921 -0.329796,0.210057 -0.636423,0.382126 -0.681396,0.382375 -0.04497,2.95e-4 -0.07563,-1.363191 -0.06812,-3.029864 z"
     id="path13413" /><path
     style="fill:#f2f2f2;fill-opacity:1;stroke:none;stroke-width:2.18223;stroke-miterlimit:4;stroke-dasharray:none;stroke-opacity:1"
     d="m 4.870333,21.139648 c -1.730995,-1.12172 -1.95483,-1.204381 -3.067576,-1.132854 -0.917216,0.05896 -0.925684,0.04787 -0.629185,-0.823716 0.218837,-0.643295 0.978562,-1.497946 1.591335,-1.790169 0.258542,-0.123295 0.899355,-0.426215 1.42403,-0.673156 L 5.142891,16.27077 v 2.510816 c 0,1.380949 -0.01226,2.508238 -0.02726,2.505088 -0.01499,-0.0031 -0.125377,-0.06931 -0.245303,-0.147026 z"
     id="path13452" /></g></svg>
