<?xml version="1.0" encoding="UTF-8" standalone="no"?>
<!-- Generator: Adobe Illustrator 19.0.0, SVG Export Plug-In . SVG Version: 6.00 Build 0)  -->

<svg
   xmlns:dc="http://purl.org/dc/elements/1.1/"
   xmlns:cc="http://creativecommons.org/ns#"
   xmlns:rdf="http://www.w3.org/1999/02/22-rdf-syntax-ns#"
   xmlns:svg="http://www.w3.org/2000/svg"
   xmlns="http://www.w3.org/2000/svg"
   xmlns:sodipodi="http://sodipodi.sourceforge.net/DTD/sodipodi-0.dtd"
   xmlns:inkscape="http://www.inkscape.org/namespaces/inkscape"
   version="1.1"
   id="Layer_1"
   x="0px"
   y="0px"
   viewBox="0 0 50 50"
   xml:space="preserve"
   sodipodi:docname="AlarmClock.svg"
   width="50"
   height="50"
   inkscape:version="0.92.4 5da689c313, 2019-01-14"><metadata
   id="metadata67"><rdf:RDF><cc:Work
       rdf:about=""><dc:format>image/svg+xml</dc:format><dc:type
         rdf:resource="http://purl.org/dc/dcmitype/StillImage" /><dc:title></dc:title></cc:Work></rdf:RDF></metadata><defs
   id="defs65" /><sodipodi:namedview
   pagecolor="#ffffff"
   bordercolor="#666666"
   borderopacity="1"
   objecttolerance="10"
   gridtolerance="10"
   guidetolerance="10"
   inkscape:pageopacity="0"
   inkscape:pageshadow="2"
   inkscape:window-width="1366"
   inkscape:window-height="740"
   id="namedview63"
   showgrid="false"
   inkscape:zoom="9.4960738"
   inkscape:cx="8.1360304"
   inkscape:cy="26.219985"
   inkscape:window-x="0"
   inkscape:window-y="0"
   inkscape:window-maximized="1"
   inkscape:current-layer="Layer_1" />





<g
   id="g892"
   transform="matrix(0.09375,0,0,0.09996268,1,-0.59045)"><path
     id="path2"
     d="M 105.965,105.944 H 70.658 c -4.875,0 -8.827,3.952 -8.827,8.827 v 17.654 h 52.961 V 114.77 c 0,-4.875 -3.951,-8.826 -8.827,-8.826 z"
     style="fill:#464655"
     inkscape:connector-curvature="0" /><path
     id="path4"
     d="m 158.926,105.944 h -17.654 c -4.875,0 -8.827,3.952 -8.827,8.827 v 17.654 h 35.307 V 114.77 c 10e-4,-4.875 -3.95,-8.826 -8.826,-8.826 z"
     style="fill:#707487"
     inkscape:connector-curvature="0" /><g
     id="g10">
	<path
   id="path6"
   d="m 70.643,406.056 h -17.7 c -4.869,0 -8.819,-3.943 -8.827,-8.813 l -0.029,-17.668 h 35.354 l 0.029,17.639 c 0.008,4.881 -3.946,8.842 -8.827,8.842 z"
   style="fill:#464655"
   inkscape:connector-curvature="0" />
	<path
   id="path8"
   d="m 459.039,406.056 h -17.7 c -4.875,0 -8.827,-3.952 -8.827,-8.827 v -17.654 h 35.354 v 17.654 c 0,4.875 -3.952,8.827 -8.827,8.827 z"
   style="fill:#464655"
   inkscape:connector-curvature="0" />
</g><path
     id="path12"
     d="M 459.039,379.576 H 53.004 C 28.63,379.576 8.87,359.816 8.87,335.442 V 176.558 c 0,-24.374 19.76,-44.134 44.134,-44.134 h 406.035 c 24.374,0 44.134,19.76 44.134,44.134 v 158.883 c 0,24.375 -19.76,44.135 -44.134,44.135 z"
     style="fill:#707487"
     inkscape:connector-curvature="0" /><path
     id="path14"
     d="M 459.039,353.095 H 53.004 c -9.75,0 -17.654,-7.903 -17.654,-17.654 V 176.558 c 0,-9.75 7.903,-17.654 17.654,-17.654 h 406.035 c 9.75,0 17.654,7.903 17.654,17.654 v 158.883 c 0,9.75 -7.904,17.654 -17.654,17.654 z"
     style="fill:#464655"
     inkscape:connector-curvature="0" /><g
     id="g30">
	<path
   id="path16"
   d="m 256.022,247.173 c -4.875,0 -8.827,-3.948 -8.827,-8.827 v -8.827 c 0,-4.879 3.952,-8.827 8.827,-8.827 4.875,0 8.827,3.948 8.827,8.827 v 8.827 c -10e-4,4.878 -3.953,8.827 -8.827,8.827 z"
   style="fill:#aff5a0"
   inkscape:connector-curvature="0" />
	<path
   id="path18"
   d="m 256.022,291.307 c -4.875,0 -8.827,-3.948 -8.827,-8.827 v -8.827 c 0,-4.879 3.952,-8.827 8.827,-8.827 4.875,0 8.827,3.948 8.827,8.827 v 8.827 c -10e-4,4.878 -3.953,8.827 -8.827,8.827 z"
   style="fill:#aff5a0"
   inkscape:connector-curvature="0" />
	<path
   id="path20"
   d="M 459.039,388.403 H 52.961 C 23.756,388.403 0,364.646 0,335.442 V 176.558 c 0,-29.205 23.756,-52.961 52.961,-52.961 h 406.078 c 29.205,0 52.961,23.756 52.961,52.961 v 158.883 c 0,29.204 -23.756,52.962 -52.961,52.962 z M 52.961,141.251 c -19.472,0 -35.307,15.835 -35.307,35.307 v 158.883 c 0,19.472 15.835,35.307 35.307,35.307 h 406.078 c 19.472,0 35.307,-15.835 35.307,-35.307 V 176.558 c 0,-19.472 -15.835,-35.307 -35.307,-35.307 z"
   style="fill:#aff5a0"
   inkscape:connector-curvature="0" />
	<path
   id="path22"
   d="m 132.446,203.039 h -17.654 c -14.602,0 -26.481,11.879 -26.481,26.481 v 52.961 c 0,14.602 11.879,26.481 26.481,26.481 h 17.654 c 14.602,0 26.481,-11.879 26.481,-26.481 V 229.52 c -0.001,-14.603 -11.879,-26.481 -26.481,-26.481 z m -17.654,17.654 h 17.654 c 4.866,0 8.827,3.957 8.827,8.827 v 17.654 H 105.966 V 229.52 c -10e-4,-4.872 3.96,-8.827 8.826,-8.827 z m 17.654,70.614 h -17.654 c -4.866,0 -8.827,-3.957 -8.827,-8.827 v -17.654 h 35.307 v 17.654 c 0.001,4.871 -3.961,8.827 -8.826,8.827 z"
   style="fill:#aff5a0"
   inkscape:connector-curvature="0" />
	<path
   id="path24"
   d="m 211.887,203.039 h -17.654 c -14.602,0 -26.481,11.879 -26.481,26.481 v 52.961 c 0,14.602 11.879,26.481 26.481,26.481 h 17.654 c 14.602,0 26.481,-11.879 26.481,-26.481 V 229.52 c 0,-14.603 -11.879,-26.481 -26.481,-26.481 z m -17.653,17.654 h 17.654 c 4.866,0 8.827,3.957 8.827,8.827 v 17.654 H 185.408 V 229.52 c -10e-4,-4.872 3.96,-8.827 8.826,-8.827 z m 17.653,70.614 h -17.654 c -4.866,0 -8.827,-3.957 -8.827,-8.827 v -17.654 h 35.307 v 17.654 c 0.001,4.871 -3.96,8.827 -8.826,8.827 z"
   style="fill:#aff5a0"
   inkscape:connector-curvature="0" />
	<path
   id="path26"
   d="m 317.809,203.039 h -17.654 c -14.602,0 -26.481,11.879 -26.481,26.481 v 52.961 c 0,14.602 11.879,26.481 26.481,26.481 h 17.654 c 14.602,0 26.481,-11.879 26.481,-26.481 V 229.52 c 0,-14.603 -11.879,-26.481 -26.481,-26.481 z m -17.653,17.654 h 17.654 c 4.866,0 8.827,3.957 8.827,8.827 v 17.654 H 291.33 V 229.52 c -10e-4,-4.872 3.96,-8.827 8.826,-8.827 z m 17.653,70.614 h -17.654 c -4.866,0 -8.827,-3.957 -8.827,-8.827 v -17.654 h 35.307 v 17.654 c 0.001,4.871 -3.96,8.827 -8.826,8.827 z"
   style="fill:#aff5a0"
   inkscape:connector-curvature="0" />
	<path
   id="path28"
   d="m 397.251,203.039 h -17.654 c -14.602,0 -26.481,11.879 -26.481,26.481 v 52.961 c 0,14.602 11.879,26.481 26.481,26.481 h 17.654 c 14.602,0 26.481,-11.879 26.481,-26.481 V 229.52 c 0,-14.603 -11.879,-26.481 -26.481,-26.481 z m -17.654,17.654 h 17.654 c 4.866,0 8.827,3.957 8.827,8.827 v 17.654 H 370.77 V 229.52 c 0,-4.872 3.962,-8.827 8.827,-8.827 z m 17.654,70.614 h -17.654 c -4.866,0 -8.827,-3.957 -8.827,-8.827 v -17.654 h 35.307 v 17.654 c 10e-4,4.871 -3.96,8.827 -8.826,8.827 z"
   style="fill:#aff5a0"
   inkscape:connector-curvature="0" />
</g></g>
<g
   id="g32"
   transform="translate(0,-462)">
</g>
<g
   id="g34"
   transform="translate(0,-462)">
</g>
<g
   id="g36"
   transform="translate(0,-462)">
</g>
<g
   id="g38"
   transform="translate(0,-462)">
</g>
<g
   id="g40"
   transform="translate(0,-462)">
</g>
<g
   id="g42"
   transform="translate(0,-462)">
</g>
<g
   id="g44"
   transform="translate(0,-462)">
</g>
<g
   id="g46"
   transform="translate(0,-462)">
</g>
<g
   id="g48"
   transform="translate(0,-462)">
</g>
<g
   id="g50"
   transform="translate(0,-462)">
</g>
<g
   id="g52"
   transform="translate(0,-462)">
</g>
<g
   id="g54"
   transform="translate(0,-462)">
</g>
<g
   id="g56"
   transform="translate(0,-462)">
</g>
<g
   id="g58"
   transform="translate(0,-462)">
</g>
<g
   id="g60"
   transform="translate(0,-462)">
</g>
</svg>