<?xml version="1.0" encoding="UTF-8" standalone="no"?>
<!-- Generator: Adobe Illustrator 18.0.0, SVG Export Plug-In . SVG Version: 6.00 Build 0)  -->

<svg
   xmlns:dc="http://purl.org/dc/elements/1.1/"
   xmlns:cc="http://creativecommons.org/ns#"
   xmlns:rdf="http://www.w3.org/1999/02/22-rdf-syntax-ns#"
   xmlns:svg="http://www.w3.org/2000/svg"
   xmlns="http://www.w3.org/2000/svg"
   xmlns:sodipodi="http://sodipodi.sourceforge.net/DTD/sodipodi-0.dtd"
   xmlns:inkscape="http://www.inkscape.org/namespaces/inkscape"
   version="1.1"
   id="Capa_1"
   x="0px"
   y="0px"
   viewBox="0 0 50 50"
   xml:space="preserve"
   sodipodi:docname="Cardiogram.svg"
   inkscape:version="0.92.4 5da689c313, 2019-01-14"
   width="50"
   height="50"><metadata
   id="metadata55"><rdf:RDF><cc:Work
       rdf:about=""><dc:format>image/svg+xml</dc:format><dc:type
         rdf:resource="http://purl.org/dc/dcmitype/StillImage" /><dc:title></dc:title></cc:Work></rdf:RDF></metadata><defs
   id="defs53">
	
	
	
	
	
	
	
	
</defs><sodipodi:namedview
   pagecolor="#ffffff"
   bordercolor="#666666"
   borderopacity="1"
   objecttolerance="10"
   gridtolerance="10"
   guidetolerance="10"
   inkscape:pageopacity="0"
   inkscape:pageshadow="2"
   inkscape:window-width="1366"
   inkscape:window-height="740"
   id="namedview51"
   showgrid="false"
   inkscape:zoom="9.1796042"
   inkscape:cx="29.033562"
   inkscape:cy="27.408549"
   inkscape:window-x="0"
   inkscape:window-y="0"
   inkscape:window-maximized="1"
   inkscape:current-layer="Capa_1" />

<g
   id="g20"
   transform="translate(0,-8)">
</g>
<g
   id="g22"
   transform="translate(0,-8)">
</g>
<g
   id="g24"
   transform="translate(0,-8)">
</g>
<g
   id="g26"
   transform="translate(0,-8)">
</g>
<g
   id="g28"
   transform="translate(0,-8)">
</g>
<g
   id="g30"
   transform="translate(0,-8)">
</g>
<g
   id="g32"
   transform="translate(0,-8)">
</g>
<g
   id="g34"
   transform="translate(0,-8)">
</g>
<g
   id="g36"
   transform="translate(0,-8)">
</g>
<g
   id="g38"
   transform="translate(0,-8)">
</g>
<g
   id="g40"
   transform="translate(0,-8)">
</g>
<g
   id="g42"
   transform="translate(0,-8)">
</g>
<g
   id="g44"
   transform="translate(0,-8)">
</g>
<g
   id="g46"
   transform="translate(0,-8)">
</g>
<g
   id="g48"
   transform="translate(0,-8)">
</g>
<g
   id="Guides_For_Artboard_18_"
   transform="matrix(0.08317954,0,0,0.08218795,10.917029,1.0659527)" /><g
   id="Artwork_17_"
   transform="matrix(0.08317954,0,0,0.08218795,10.917029,1.0659527)" /><g
   id="g938"
   transform="matrix(1,0,0,1.0104423,1,-8.1618572)"><path
     style="fill:#3e465b;stroke-width:0.80715799"
     d="M 45.961655,50.138298 H 2.0383448 C 0.91282759,50.138298 0,49.269979 0,48.19934 V 17.438957 C 0,16.368319 0.91282759,15.5 2.0383448,15.5 H 45.961655 C 47.087172,15.5 48,16.368319 48,17.438957 V 48.19934 c 0,1.070639 -0.912828,1.938958 -2.038345,1.938958 z"
     id="path2"
     inkscape:connector-curvature="0" /><rect
     x="3.3103449"
     y="18.648935"
     style="fill:#556080;stroke-width:0.80715799"
     width="41.379311"
     height="26.765957"
     id="rect4" /><path
     style="fill:#a4e869;stroke-width:0.80715799"
     d="m 43.862069,48.56383 h -0.827586 c -0.457655,0 -0.827586,-0.351894 -0.827586,-0.787234 0,-0.435341 0.369931,-0.787234 0.827586,-0.787234 h 0.827586 c 0.457655,0 0.827586,0.351893 0.827586,0.787234 0,0.43534 -0.369931,0.787234 -0.827586,0.787234 z"
     id="path12"
     inkscape:connector-curvature="0" /><path
     style="fill:#48a0dc;stroke-width:0.80715799"
     d="m 40.551724,48.56383 h -0.827586 c -0.457655,0 -0.827586,-0.351894 -0.827586,-0.787234 0,-0.435341 0.369931,-0.787234 0.827586,-0.787234 h 0.827586 c 0.457655,0 0.827586,0.351893 0.827586,0.787234 0,0.43534 -0.369931,0.787234 -0.827586,0.787234 z"
     id="path14"
     inkscape:connector-curvature="0" /><path
     style="fill:#dd352e;stroke-width:0.80715799"
     d="m 37.241379,48.56383 h -0.827586 c -0.457655,0 -0.827586,-0.351894 -0.827586,-0.787234 0,-0.435341 0.369931,-0.787234 0.827586,-0.787234 h 0.827586 c 0.457655,0 0.827587,0.351893 0.827587,0.787234 0,0.43534 -0.369932,0.787234 -0.827587,0.787234 z"
     id="path16"
     inkscape:connector-curvature="0" /><g
     id="g927"><path
       id="path4"
       d="m 19.805351,25.26546 c 0.08742,-0.229042 0.332558,-0.37009 0.589463,-0.338452 0.256697,0.03144 0.455502,0.226713 0.477599,0.469148 l 0.880028,9.664088 1.647918,-5.583127 c 0.06739,-0.228201 0.289947,-0.385166 0.542859,-0.379084 0.251879,0.0053 0.467894,0.170423 0.524478,0.401211 l 0.917683,3.741862 1.566827,-6.1875 c 0.06133,-0.242112 0.297588,-0.407941 0.561651,-0.397201 0.264477,0.01171 0.482625,0.198697 0.519454,0.445144 l 1.169355,7.835439 0.524272,-1.592424 c 0.07139,-0.216749 0.284715,-0.364592 0.52613,-0.364592 h 5.891659 c 0.864746,-1.223757 1.480091,-2.442145 1.684816,-3.614076 0.449376,-2.593805 0.01102,-4.732955 -1.305861,-6.357018 -1.329748,-1.639527 -3.349669,-2.574977 -6.180917,-2.859985 -0.272049,-0.02569 -0.520624,-0.03779 -0.766996,-0.03779 -2.003743,0 -4.024008,0.70039 -5.576586,1.885068 -1.550374,-1.184678 -3.572429,-1.885068 -5.572317,-1.885068 -0.248851,0 -0.495223,0.0121 -0.76913,0.03779 -2.831179,0.285008 -4.853234,1.220458 -6.181261,2.859985 -1.316531,1.624128 -1.7553064,3.763213 -1.305792,6.357018 0.20796,1.190436 0.839069,2.428428 1.724742,3.671078 h 4.943205 z"
       style="fill:#e74424;stroke-width:0.06673764"
       inkscape:connector-curvature="0" /><path
       id="path6-6"
       d="m 29.52593,37.456969 c -0.07627,0.231629 -0.313971,0.382642 -0.570325,0.362909 -0.257041,-0.01948 -0.465346,-0.204003 -0.501142,-0.444044 l -1.106437,-7.414041 -1.435415,5.668598 c -0.05899,0.233247 -0.280791,0.397718 -0.535699,0.397782 -6.88e-4,0 -0.0013,0 -0.0019,0 -0.255804,-8.66e-4 -0.477256,-0.167123 -0.534736,-0.401341 l -0.958435,-3.908014 -1.886306,6.390597 c -0.0667,0.225743 -0.285265,0.379214 -0.530261,0.379279 -0.01707,0 -0.03415,-7.77e-4 -0.05135,-0.0023 -0.265372,-0.02316 -0.474983,-0.221667 -0.497701,-0.471284 l -0.926037,-10.16835 -2.245641,5.882629 c -0.07847,0.20562 -0.285885,0.342787 -0.518352,0.342787 h -4.53761 c 1.831166,2.242542 4.340664,4.461855 6.539701,6.406255 0,0 1.874053,1.768282 2.436461,2.221449 0.424457,0.341622 1.341244,1.028231 2.33637,1.028231 0.99368,0 1.912602,-0.686609 2.334511,-1.028231 0.562477,-0.453232 2.436461,-2.221449 2.436461,-2.221449 2.217486,-1.960639 4.750802,-4.201434 6.585892,-6.463257 h -4.69876 z"
       style="fill:#e74424;stroke-width:0.06673764"
       inkscape:connector-curvature="0" /><path
       id="path8"
       d="m 44.014388,32.808454 h -1.19813 l -12.56312,0.171518 c -0.241391,0.0033 -0.454677,0.147843 -0.526131,0.364592 l -0.524272,1.592424 -1.169355,-7.835439 c -0.03683,-0.246447 -0.254977,-0.433433 -0.519454,-0.445144 -0.264063,-0.01074 -0.500385,0.155089 -0.561651,0.397201 l -1.566827,6.1875 -0.917683,-3.741862 c -0.05658,-0.230788 -0.272599,-0.396035 -0.524478,-0.401211 -0.252912,-0.0061 -0.475466,0.150883 -0.542858,0.379084 l -1.647919,5.583127 -0.880029,-9.664088 c -0.02203,-0.242435 -0.220833,-0.437703 -0.477599,-0.469148 -0.256904,-0.03164 -0.502038,0.10941 -0.589462,0.338452 L 16.838699,33.036974 6.4861999,32.865456 h -2.310005 c -0.3041272,0 -0.5507057,0.23176 -0.5507057,0.51761 0,0.285849 0.2465785,0.517609 0.5507057,0.517609 h 3.1030908 l 9.9469033,0.171518 c 0.232359,0.004 0.439877,-0.137167 0.518352,-0.342787 l 2.245641,-5.882629 0.926012,10.168369 c 0.02272,0.249616 0.232329,0.448055 0.4977,0.471283 0.01721,0.0015 0.03428,0.0023 0.05135,0.0023 0.245065,0 0.463556,-0.153536 0.530261,-0.379279 l 1.886305,-6.390597 0.958435,3.908014 c 0.05748,0.234283 0.278933,0.4005 0.534736,0.401341 h 0.0019 c 0.254907,0 0.476704,-0.164535 0.535699,-0.397782 l 1.435415,-5.668598 1.106436,7.414041 c 0.03587,0.240041 0.244101,0.424568 0.501143,0.444044 0.256422,0.01974 0.494052,-0.131279 0.570325,-0.362909 l 1.133214,-3.441778 h 4.698761 l 8.656482,-0.171517 c 0.304061,-0.0061 0.550706,-0.231761 0.550706,-0.51761 0,-0.285849 -0.246579,-0.51761 -0.550706,-0.51761 z"
       style="fill:#f7f1e6;stroke-width:0.06673764"
       inkscape:connector-curvature="0"
       sodipodi:nodetypes="ccscccccccccccccccssscsccccsccccscccccccsscc" /></g></g></svg>