<?xml version="1.0" encoding="UTF-8"?>
<svg xmlns="http://www.w3.org/2000/svg" xmlns:xlink="http://www.w3.org/1999/xlink" width="50px" height="50px" viewBox="0 0 50 50" version="1.1">
<g id="surface1">
<path style=" stroke:none;fill-rule:nonzero;fill:rgb(0%,0%,0%);fill-opacity:1;" d="M 0.773438 9.6875 C 0.234375 10.308594 0 11.238281 0.234375 11.78125 C 0.386719 12.324219 6.046875 15.8125 12.710938 19.53125 L 24.878906 26.273438 L 36.96875 19.53125 C 43.558594 15.8125 49.214844 12.324219 49.371094 11.78125 C 49.601562 11.238281 49.371094 10.308594 48.828125 9.6875 C 47.355469 7.984375 2.246094 7.984375 0.773438 9.6875 Z M 0.773438 9.6875 "/>
<path style=" stroke:none;fill-rule:nonzero;fill:rgb(0%,0%,0%);fill-opacity:1;" d="M 0 26.972656 C 0 35.496094 0.308594 39.527344 0.929688 40.148438 C 2.246094 41.464844 47.355469 41.464844 48.671875 40.148438 C 49.292969 39.527344 49.601562 35.496094 49.601562 26.972656 C 49.601562 20.230469 49.449219 14.726562 49.214844 14.726562 C 49.0625 14.726562 43.480469 17.75 36.816406 21.390625 L 24.800781 28.058594 L 12.789062 21.390625 C 6.121094 17.75 0.542969 14.726562 0.386719 14.726562 C 0.15625 14.726562 0 20.230469 0 26.972656 Z M 0 26.972656 "/>
</g>
</svg>
