<?xml version="1.0" encoding="UTF-8"?>
<svg xmlns="http://www.w3.org/2000/svg" xmlns:xlink="http://www.w3.org/1999/xlink" width="50px" height="50px" viewBox="0 0 50 50" version="1.1">
<g id="surface1">
<path style=" stroke:none;fill-rule:nonzero;fill:rgb(0%,0%,0%);fill-opacity:1;" d="M 1.25 8.28125 C -0.625 10.078125 -0.625 39.921875 1.25 41.71875 C 2.265625 42.8125 5.546875 42.96875 25 42.96875 C 44.453125 42.96875 47.734375 42.8125 48.75 41.71875 C 50.625 39.921875 50.625 10.078125 48.75 8.28125 C 47.734375 7.1875 44.453125 7.03125 25 7.03125 C 5.546875 7.03125 2.265625 7.1875 1.25 8.28125 Z M 34.765625 19.53125 C 30.078125 24.296875 25.625 28.125 25 28.125 C 24.375 28.125 19.921875 24.21875 15.234375 19.53125 L 6.640625 10.9375 L 43.359375 10.9375 Z M 13.59375 23.359375 C 15.078125 25 15.078125 25 13.59375 26.640625 C 12.8125 27.578125 10.078125 30.078125 7.65625 32.1875 L 3.125 36.09375 L 3.125 13.90625 L 7.65625 17.8125 C 10.078125 19.921875 12.8125 22.421875 13.59375 23.359375 Z M 46.71875 30.46875 L 46.484375 35.9375 L 34.765625 25 L 46.484375 14.0625 L 46.71875 19.53125 C 46.875 22.5 46.875 27.5 46.71875 30.46875 Z M 20 29.765625 C 22.578125 32.1875 27.578125 32.109375 30.15625 29.609375 L 32.109375 27.8125 L 43.359375 39.0625 L 6.71875 39.0625 L 12.109375 33.59375 C 15.078125 30.546875 17.734375 28.125 17.890625 28.125 C 18.125 28.125 19.0625 28.90625 20 29.765625 Z M 20 29.765625 "/>
</g>
</svg>
