<?xml version="1.0" encoding="UTF-8" standalone="no"?>
<!-- Generator: Adobe Illustrator 19.0.0, SVG Export Plug-In . SVG Version: 6.00 Build 0)  -->

<svg
   xmlns:dc="http://purl.org/dc/elements/1.1/"
   xmlns:cc="http://creativecommons.org/ns#"
   xmlns:rdf="http://www.w3.org/1999/02/22-rdf-syntax-ns#"
   xmlns:svg="http://www.w3.org/2000/svg"
   xmlns="http://www.w3.org/2000/svg"
   xmlns:sodipodi="http://sodipodi.sourceforge.net/DTD/sodipodi-0.dtd"
   xmlns:inkscape="http://www.inkscape.org/namespaces/inkscape"
   version="1.1"
   id="Layer_1"
   x="0px"
   y="0px"
   viewBox="0 0 50.000001 50.000001"
   xml:space="preserve"
   sodipodi:docname="Macbook.svg"
   width="50"
   height="50"
   inkscape:export-filename="/home/alexander/svg/macbook.svg.png"
   inkscape:export-xdpi="9.6000004"
   inkscape:export-ydpi="9.6000004"
   inkscape:version="0.92.4 5da689c313, 2019-01-14"><metadata
   id="metadata53"><rdf:RDF><cc:Work
       rdf:about=""><dc:format>image/svg+xml</dc:format><dc:type
         rdf:resource="http://purl.org/dc/dcmitype/StillImage" /><dc:title></dc:title></cc:Work></rdf:RDF></metadata><defs
   id="defs51" /><sodipodi:namedview
   pagecolor="#ffffff"
   bordercolor="#666666"
   borderopacity="1"
   objecttolerance="10"
   gridtolerance="10"
   guidetolerance="10"
   inkscape:pageopacity="0"
   inkscape:pageshadow="2"
   inkscape:window-width="1366"
   inkscape:window-height="740"
   id="namedview49"
   showgrid="false"
   inkscape:zoom="10.174842"
   inkscape:cx="24.655705"
   inkscape:cy="24.263306"
   inkscape:window-x="0"
   inkscape:window-y="0"
   inkscape:window-maximized="1"
   inkscape:current-layer="Layer_1"
   scale-x="0.60000002" />







<g
   id="g868"
   transform="matrix(0.09918214,0,0,0.10063353,0,-0.36578873)"><path
     id="path2"
     d="m 504.123,382.03 v 7.877 c 0,12.997 -10.634,23.631 -23.631,23.631 H 23.631 C 10.634,413.537 0,402.904 0,389.907 v -7.877 z"
     style="fill:#e4e7e7"
     inkscape:connector-curvature="0" /><path
     id="path4"
     d="m 216.615,374.153 h 70.892 c 6.695,0 11.815,5.12 11.815,11.815 0,6.695 -5.12,11.815 -11.815,11.815 h -70.892 c -6.695,0 -11.815,-5.12 -11.815,-11.815 0,-6.301 5.12,-11.815 11.815,-11.815 z"
     style="fill:#c8cbcb"
     inkscape:connector-curvature="0" /><path
     id="path6"
     d="m 63.015,90.584 h 378.092 c 8.665,0 15.754,7.089 15.754,15.754 V 382.03 H 47.261 V 106.337 c 10e-4,-8.664 7.09,-15.753 15.754,-15.753 z"
     style="fill:#36434f"
     inkscape:connector-curvature="0" /><path
     id="path8"
     d="M 70.892,114.214 H 433.23 V 358.399 H 70.892 Z"
     style="fill:#465765"
     inkscape:connector-curvature="0" /><path
     id="path10"
     d="m 157.538,326.891 h 189.046 c 12.997,0 23.631,10.634 23.631,23.631 v 7.877 H 133.908 v -7.877 c 0,-12.997 10.634,-23.631 23.63,-23.631 z"
     style="fill:#7e8a94"
     inkscape:connector-curvature="0" /><path
     id="path12"
     d="m 181.169,311.137 c 8.665,0 15.754,7.089 15.754,15.754 0,8.665 -7.089,15.754 -15.754,15.754 -8.665,0 -15.754,-7.089 -15.754,-15.754 0,-8.665 7.09,-15.754 15.754,-15.754 z"
     style="fill:#e4e7e7"
     inkscape:connector-curvature="0" /><path
     id="path14"
     d="m 228.431,311.137 c 8.665,0 15.754,7.089 15.754,15.754 0,8.665 -7.089,15.754 -15.754,15.754 -8.665,0 -15.754,-7.089 -15.754,-15.754 0,-8.665 7.089,-15.754 15.754,-15.754 z"
     style="fill:#efc75e"
     inkscape:connector-curvature="0" /><path
     id="path16"
     d="m 275.692,311.137 c 8.665,0 15.754,7.089 15.754,15.754 0,8.665 -7.089,15.754 -15.754,15.754 -8.665,0 -15.754,-7.089 -15.754,-15.754 0,-8.665 7.09,-15.754 15.754,-15.754 z m 47.262,0 c 8.665,0 15.754,7.089 15.754,15.754 0,8.665 -7.089,15.754 -15.754,15.754 -8.665,0 -15.754,-7.089 -15.754,-15.754 0,-8.665 7.089,-15.754 15.754,-15.754 z"
     style="fill:#e4e7e7"
     inkscape:connector-curvature="0" /></g>
<g
   id="g18"
   transform="translate(0,-454.12299)">
</g>
<g
   id="g20"
   transform="translate(0,-454.12299)">
</g>
<g
   id="g22"
   transform="translate(0,-454.12299)">
</g>
<g
   id="g24"
   transform="translate(0,-454.12299)">
</g>
<g
   id="g26"
   transform="translate(0,-454.12299)">
</g>
<g
   id="g28"
   transform="translate(0,-454.12299)">
</g>
<g
   id="g30"
   transform="translate(0,-454.12299)">
</g>
<g
   id="g32"
   transform="translate(0,-454.12299)">
</g>
<g
   id="g34"
   transform="translate(0,-454.12299)">
</g>
<g
   id="g36"
   transform="translate(0,-454.12299)">
</g>
<g
   id="g38"
   transform="translate(0,-454.12299)">
</g>
<g
   id="g40"
   transform="translate(0,-454.12299)">
</g>
<g
   id="g42"
   transform="translate(0,-454.12299)">
</g>
<g
   id="g44"
   transform="translate(0,-454.12299)">
</g>
<g
   id="g46"
   transform="translate(0,-454.12299)">
</g>
</svg>