<?xml version="1.0" encoding="UTF-8" standalone="no"?>
<svg
   xmlns:dc="http://purl.org/dc/elements/1.1/"
   xmlns:cc="http://creativecommons.org/ns#"
   xmlns:rdf="http://www.w3.org/1999/02/22-rdf-syntax-ns#"
   xmlns:svg="http://www.w3.org/2000/svg"
   xmlns="http://www.w3.org/2000/svg"
   xmlns:sodipodi="http://sodipodi.sourceforge.net/DTD/sodipodi-0.dtd"
   xmlns:inkscape="http://www.inkscape.org/namespaces/inkscape"
   height="50"
   viewBox="0 0 37.499999 37.499999"
   width="50"
   version="1.1"
   id="svg56"
   sodipodi:docname="MoveIcon.svg"
   inkscape:version="0.92.4 5da689c313, 2019-01-14"
   inkscape:export-filename="/home/alexander/Projects/desktop/idcsimu/src/main/resources/image/png/MoveIcon.png"
   inkscape:export-xdpi="96"
   inkscape:export-ydpi="96">
  <metadata
     id="metadata62">
    <rdf:RDF>
      <cc:Work
         rdf:about="">
        <dc:format>image/svg+xml</dc:format>
        <dc:type
           rdf:resource="http://purl.org/dc/dcmitype/StillImage" />
        <dc:title></dc:title>
      </cc:Work>
    </rdf:RDF>
  </metadata>
  <defs
     id="defs60" />
  <sodipodi:namedview
     pagecolor="#ffffff"
     bordercolor="#666666"
     borderopacity="1"
     objecttolerance="10"
     gridtolerance="10"
     guidetolerance="10"
     inkscape:pageopacity="0"
     inkscape:pageshadow="2"
     inkscape:window-width="1366"
     inkscape:window-height="740"
     id="namedview58"
     showgrid="false"
     inkscape:zoom="6.6547852"
     inkscape:cx="21.694915"
     inkscape:cy="23.141243"
     inkscape:window-x="0"
     inkscape:window-y="0"
     inkscape:window-maximized="1"
     inkscape:current-layer="svg56"
     units="px" />
  <rect
     style="fill:#ececec;fill-opacity:0.19607843;stroke:none;stroke-width:1.82936299;stroke-miterlimit:4;stroke-dasharray:none;stroke-dashoffset:9.82677174;stroke-opacity:1"
     id="rect931"
     width="32.8125"
     height="32.8125"
     x="2.34375"
     y="2.34375"
     ry="0" />
  <g
     id="g44"
     style="fill:#e6e6e6;stroke-width:10.23999938;stroke-miterlimit:4;stroke-dasharray:none"
     transform="matrix(0.07324219,0,0,0.07324219,0,-2.1861521e-5)">
    <path
       inkscape:connector-curvature="0"
       d="m 240,32 h 32 v 32 h -32 z m 0,0"
       id="path4"
       style="fill:#e6e6e6;stroke-width:10.23999938;stroke-miterlimit:4;stroke-dasharray:none" />
    <path
       inkscape:connector-curvature="0"
       d="m 304,32 h 32 v 32 h -32 z m 0,0"
       id="path6"
       style="fill:#e6e6e6;stroke-width:10.23999938;stroke-miterlimit:4;stroke-dasharray:none" />
    <path
       inkscape:connector-curvature="0"
       d="m 368,32 h 64 v 32 h -64 z m 0,0"
       id="path8"
       style="fill:#e6e6e6;stroke-width:10.23999938;stroke-miterlimit:4;stroke-dasharray:none" />
    <path
       inkscape:connector-curvature="0"
       d="m 176,32 h 32 v 32 h -32 z m 0,0"
       id="path10"
       style="fill:#e6e6e6;stroke-width:10.23999938;stroke-miterlimit:4;stroke-dasharray:none" />
    <path
       inkscape:connector-curvature="0"
       d="m 80,32 h 64 V 64 H 80 Z m 0,0"
       id="path12"
       style="fill:#e6e6e6;stroke-width:10.23999938;stroke-miterlimit:4;stroke-dasharray:none" />
    <path
       inkscape:connector-curvature="0"
       d="m 240,448 h 32 v 32 h -32 z m 0,0"
       id="path14"
       style="fill:#e6e6e6;stroke-width:10.23999938;stroke-miterlimit:4;stroke-dasharray:none" />
    <path
       inkscape:connector-curvature="0"
       d="m 304,448 h 32 v 32 h -32 z m 0,0"
       id="path16"
       style="fill:#e6e6e6;stroke-width:10.23999938;stroke-miterlimit:4;stroke-dasharray:none" />
    <path
       inkscape:connector-curvature="0"
       d="m 368,448 h 64 v 32 h -64 z m 0,0"
       id="path18"
       style="fill:#e6e6e6;stroke-width:10.23999938;stroke-miterlimit:4;stroke-dasharray:none" />
    <path
       inkscape:connector-curvature="0"
       d="m 176,448 h 32 v 32 h -32 z m 0,0"
       id="path20"
       style="fill:#e6e6e6;stroke-width:10.23999938;stroke-miterlimit:4;stroke-dasharray:none" />
    <path
       inkscape:connector-curvature="0"
       d="m 80,448 h 64 v 32 H 80 Z m 0,0"
       id="path22"
       style="fill:#e6e6e6;stroke-width:10.23999938;stroke-miterlimit:4;stroke-dasharray:none" />
    <path
       inkscape:connector-curvature="0"
       d="m 32,240 h 32 v 32 H 32 Z m 0,0"
       id="path24"
       style="fill:#e6e6e6;stroke-width:10.23999938;stroke-miterlimit:4;stroke-dasharray:none" />
    <path
       inkscape:connector-curvature="0"
       d="m 32,176 h 32 v 32 H 32 Z m 0,0"
       id="path26"
       style="fill:#e6e6e6;stroke-width:10.23999938;stroke-miterlimit:4;stroke-dasharray:none" />
    <path
       inkscape:connector-curvature="0"
       d="m 32,80 h 32 v 64 H 32 Z m 0,0"
       id="path28"
       style="fill:#e6e6e6;stroke-width:10.23999938;stroke-miterlimit:4;stroke-dasharray:none" />
    <path
       inkscape:connector-curvature="0"
       d="m 32,304 h 32 v 32 H 32 Z m 0,0"
       id="path30"
       style="fill:#e6e6e6;stroke-width:10.23999938;stroke-miterlimit:4;stroke-dasharray:none" />
    <path
       inkscape:connector-curvature="0"
       d="m 32,368 h 32 v 64 H 32 Z m 0,0"
       id="path32"
       style="fill:#e6e6e6;stroke-width:10.23999938;stroke-miterlimit:4;stroke-dasharray:none" />
    <path
       inkscape:connector-curvature="0"
       d="m 448,240 h 32 v 32 h -32 z m 0,0"
       id="path34"
       style="fill:#e6e6e6;stroke-width:10.23999938;stroke-miterlimit:4;stroke-dasharray:none" />
    <path
       inkscape:connector-curvature="0"
       d="m 448,176 h 32 v 32 h -32 z m 0,0"
       id="path36"
       style="fill:#e6e6e6;stroke-width:10.23999938;stroke-miterlimit:4;stroke-dasharray:none" />
    <path
       inkscape:connector-curvature="0"
       d="m 448,80 h 32 v 64 h -32 z m 0,0"
       id="path38"
       style="fill:#e6e6e6;stroke-width:10.23999938;stroke-miterlimit:4;stroke-dasharray:none" />
    <path
       inkscape:connector-curvature="0"
       d="m 448,304 h 32 v 32 h -32 z m 0,0"
       id="path40"
       style="fill:#e6e6e6;stroke-width:10.23999938;stroke-miterlimit:4;stroke-dasharray:none" />
    <path
       inkscape:connector-curvature="0"
       d="m 448,368 h 32 v 64 h -32 z m 0,0"
       id="path42"
       style="fill:#e6e6e6;stroke-width:10.23999938;stroke-miterlimit:4;stroke-dasharray:none" />
  </g>
  <g
     id="g873"
     style="fill:#cccccc"
     transform="matrix(0.07324219,0,0,0.07324219,0,-2.1861521e-5)">
    <path
       inkscape:connector-curvature="0"
       id="path48"
       d="M 0,0 H 96 V 96 H 0 Z m 0,0"
       style="fill:#cccccc" />
    <path
       inkscape:connector-curvature="0"
       id="path50"
       d="m 0,416 h 96 v 96 H 0 Z m 0,0"
       style="fill:#cccccc" />
    <path
       inkscape:connector-curvature="0"
       id="path52"
       d="m 416,0 h 96 v 96 h -96 z m 0,0"
       style="fill:#cccccc" />
    <path
       inkscape:connector-curvature="0"
       id="path54"
       d="m 416,416 h 96 v 96 h -96 z m 0,0"
       style="fill:#cccccc" />
  </g>
</svg>
